<mxfile host="app.diagrams.net" modified="2024-01-21T08:29:30.498Z" agent="Mozilla/5.0 (X11; Ubuntu; Linux x86_64; rv:109.0) Gecko/20100101 Firefox/118.0" etag="A1jwL8rnbyNogahn3cpT" version="22.1.21" type="github">
  <diagram name="Page-1" id="WLxIS8xWplWRHZjYTBr9">
    <mxGraphModel dx="1364" dy="790" grid="1" gridSize="10" guides="1" tooltips="1" connect="1" arrows="1" fold="1" page="1" pageScale="1" pageWidth="827" pageHeight="1169" math="0" shadow="0">
      <root>
        <mxCell id="0" />
        <mxCell id="1" parent="0" />
        <mxCell id="ENt3GgtHNPn2ZB3A4AnP-3" value="DecoSystem" style="swimlane;fontStyle=0;childLayout=stackLayout;horizontal=1;startSize=26;fillColor=#dae8fc;horizontalStack=0;resizeParent=1;resizeParentMax=0;resizeLast=0;collapsible=1;marginBottom=0;whiteSpace=wrap;html=1;strokeColor=#6c8ebf;" parent="1" vertex="1">
          <mxGeometry x="51" y="50" width="270" height="172" as="geometry">
            <mxRectangle x="60" y="50" width="110" height="30" as="alternateBounds" />
          </mxGeometry>
        </mxCell>
        <mxCell id="8VUmXksc3MJzfbJmVagt-12" value="&lt;font face=&quot;Courier New&quot;&gt;&amp;lt;&amp;lt;SubSytem&amp;gt;&amp;gt;&lt;/font&gt;" style="text;strokeColor=none;fillColor=none;align=left;verticalAlign=top;spacingLeft=4;spacingRight=4;overflow=hidden;rotatable=0;points=[[0,0.5],[1,0.5]];portConstraint=eastwest;whiteSpace=wrap;html=1;" parent="ENt3GgtHNPn2ZB3A4AnP-3" vertex="1">
          <mxGeometry y="26" width="270" height="34" as="geometry" />
        </mxCell>
        <mxCell id="ENt3GgtHNPn2ZB3A4AnP-4" value="+ login (Username: string, password: string)&lt;span style=&quot;white-space: pre;&quot;&gt;&#x9;&lt;/span&gt;&lt;span style=&quot;white-space: pre;&quot;&gt;&#x9;&lt;/span&gt;" style="text;align=left;verticalAlign=top;spacingLeft=4;spacingRight=4;overflow=hidden;rotatable=0;points=[[0,0.5],[1,0.5]];portConstraint=eastwest;whiteSpace=wrap;html=1;" parent="ENt3GgtHNPn2ZB3A4AnP-3" vertex="1">
          <mxGeometry y="60" width="270" height="34" as="geometry" />
        </mxCell>
        <mxCell id="ENt3GgtHNPn2ZB3A4AnP-5" value="&lt;font face=&quot;Helvetica&quot;&gt;+ showDashboard()&lt;/font&gt;" style="text;strokeColor=none;fillColor=none;align=left;verticalAlign=top;spacingLeft=4;spacingRight=4;overflow=hidden;rotatable=0;points=[[0,0.5],[1,0.5]];portConstraint=eastwest;whiteSpace=wrap;html=1;" parent="ENt3GgtHNPn2ZB3A4AnP-3" vertex="1">
          <mxGeometry y="94" width="270" height="26" as="geometry" />
        </mxCell>
        <mxCell id="ENt3GgtHNPn2ZB3A4AnP-6" value="&lt;font face=&quot;Helvetica&quot;&gt;+ showScoreboard()&lt;/font&gt;" style="text;strokeColor=none;fillColor=none;align=left;verticalAlign=top;spacingLeft=4;spacingRight=4;overflow=hidden;rotatable=0;points=[[0,0.5],[1,0.5]];portConstraint=eastwest;whiteSpace=wrap;html=1;" parent="ENt3GgtHNPn2ZB3A4AnP-3" vertex="1">
          <mxGeometry y="120" width="270" height="26" as="geometry" />
        </mxCell>
        <mxCell id="ENt3GgtHNPn2ZB3A4AnP-8" value="+ changePassword()" style="text;strokeColor=none;fillColor=none;align=left;verticalAlign=top;spacingLeft=4;spacingRight=4;overflow=hidden;rotatable=0;points=[[0,0.5],[1,0.5]];portConstraint=eastwest;whiteSpace=wrap;html=1;" parent="ENt3GgtHNPn2ZB3A4AnP-3" vertex="1">
          <mxGeometry y="146" width="270" height="26" as="geometry" />
        </mxCell>
        <mxCell id="ENt3GgtHNPn2ZB3A4AnP-10" value="" style="html=1;verticalAlign=bottom;endArrow=open;dashed=1;endSize=8;curved=0;rounded=0;exitX=-0.005;exitY=0.142;exitDx=0;exitDy=0;exitPerimeter=0;" parent="1" source="ENt3GgtHNPn2ZB3A4AnP-12" target="ENt3GgtHNPn2ZB3A4AnP-4" edge="1">
          <mxGeometry relative="1" as="geometry">
            <mxPoint x="410" y="120" as="sourcePoint" />
            <mxPoint x="320" y="120" as="targetPoint" />
          </mxGeometry>
        </mxCell>
        <mxCell id="ENt3GgtHNPn2ZB3A4AnP-11" value="UserProfile" style="swimlane;fontStyle=0;childLayout=stackLayout;horizontal=1;startSize=26;fillColor=#d5e8d4;horizontalStack=0;resizeParent=1;resizeParentMax=0;resizeLast=0;collapsible=1;marginBottom=0;whiteSpace=wrap;html=1;strokeColor=#82b366;" parent="1" vertex="1">
          <mxGeometry x="410" y="67" width="140" height="142" as="geometry" />
        </mxCell>
        <mxCell id="8VUmXksc3MJzfbJmVagt-13" value="&lt;font face=&quot;Courier New&quot;&gt;&amp;lt;&amp;lt;class&amp;gt;&amp;gt;&lt;/font&gt;" style="text;strokeColor=none;fillColor=none;align=left;verticalAlign=top;spacingLeft=4;spacingRight=4;overflow=hidden;rotatable=0;points=[[0,0.5],[1,0.5]];portConstraint=eastwest;whiteSpace=wrap;html=1;" parent="ENt3GgtHNPn2ZB3A4AnP-11" vertex="1">
          <mxGeometry y="26" width="140" height="26" as="geometry" />
        </mxCell>
        <mxCell id="ENt3GgtHNPn2ZB3A4AnP-12" value="+ Ignite/SwonNum: string" style="text;strokeColor=none;fillColor=none;align=left;verticalAlign=top;spacingLeft=4;spacingRight=4;overflow=hidden;rotatable=0;points=[[0,0.5],[1,0.5]];portConstraint=eastwest;whiteSpace=wrap;html=1;" parent="ENt3GgtHNPn2ZB3A4AnP-11" vertex="1">
          <mxGeometry y="52" width="140" height="38" as="geometry" />
        </mxCell>
        <mxCell id="ENt3GgtHNPn2ZB3A4AnP-13" value="+ Name: string" style="text;strokeColor=none;fillColor=none;align=left;verticalAlign=top;spacingLeft=4;spacingRight=4;overflow=hidden;rotatable=0;points=[[0,0.5],[1,0.5]];portConstraint=eastwest;whiteSpace=wrap;html=1;" parent="ENt3GgtHNPn2ZB3A4AnP-11" vertex="1">
          <mxGeometry y="90" width="140" height="26" as="geometry" />
        </mxCell>
        <mxCell id="ENt3GgtHNPn2ZB3A4AnP-14" value="+ Email: string" style="text;strokeColor=none;fillColor=none;align=left;verticalAlign=top;spacingLeft=4;spacingRight=4;overflow=hidden;rotatable=0;points=[[0,0.5],[1,0.5]];portConstraint=eastwest;whiteSpace=wrap;html=1;" parent="ENt3GgtHNPn2ZB3A4AnP-11" vertex="1">
          <mxGeometry y="116" width="140" height="26" as="geometry" />
        </mxCell>
        <mxCell id="8VUmXksc3MJzfbJmVagt-1" value="Dashboard" style="swimlane;fontStyle=0;childLayout=stackLayout;horizontal=1;startSize=27;fillColor=#d5e8d4;horizontalStack=0;resizeParent=1;resizeParentMax=0;resizeLast=0;collapsible=1;marginBottom=0;whiteSpace=wrap;html=1;strokeColor=#82b366;" parent="1" vertex="1">
          <mxGeometry x="120" y="293" width="160" height="183" as="geometry" />
        </mxCell>
        <mxCell id="8VUmXksc3MJzfbJmVagt-22" value="&lt;font face=&quot;Courier New&quot;&gt;&amp;lt;&amp;lt;class&amp;gt;&amp;gt;&lt;/font&gt;" style="text;strokeColor=none;fillColor=none;align=left;verticalAlign=top;spacingLeft=4;spacingRight=4;overflow=hidden;rotatable=0;points=[[0,0.5],[1,0.5]];portConstraint=eastwest;whiteSpace=wrap;html=1;" parent="8VUmXksc3MJzfbJmVagt-1" vertex="1">
          <mxGeometry y="27" width="160" height="26" as="geometry" />
        </mxCell>
        <mxCell id="8VUmXksc3MJzfbJmVagt-2" value="+ SpiderGraph: int" style="text;strokeColor=none;fillColor=none;align=left;verticalAlign=top;spacingLeft=4;spacingRight=4;overflow=hidden;rotatable=0;points=[[0,0.5],[1,0.5]];portConstraint=eastwest;whiteSpace=wrap;html=1;" parent="8VUmXksc3MJzfbJmVagt-1" vertex="1">
          <mxGeometry y="53" width="160" height="26" as="geometry" />
        </mxCell>
        <mxCell id="8VUmXksc3MJzfbJmVagt-3" value="+ DPI: float" style="text;strokeColor=none;fillColor=none;align=left;verticalAlign=top;spacingLeft=4;spacingRight=4;overflow=hidden;rotatable=0;points=[[0,0.5],[1,0.5]];portConstraint=eastwest;whiteSpace=wrap;html=1;" parent="8VUmXksc3MJzfbJmVagt-1" vertex="1">
          <mxGeometry y="79" width="160" height="26" as="geometry" />
        </mxCell>
        <mxCell id="8VUmXksc3MJzfbJmVagt-4" value="+ batchRank: int" style="text;strokeColor=none;fillColor=none;align=left;verticalAlign=top;spacingLeft=4;spacingRight=4;overflow=hidden;rotatable=0;points=[[0,0.5],[1,0.5]];portConstraint=eastwest;whiteSpace=wrap;html=1;" parent="8VUmXksc3MJzfbJmVagt-1" vertex="1">
          <mxGeometry y="105" width="160" height="26" as="geometry" />
        </mxCell>
        <mxCell id="8VUmXksc3MJzfbJmVagt-7" value="+ allotedBatch : string" style="text;strokeColor=none;fillColor=none;align=left;verticalAlign=top;spacingLeft=4;spacingRight=4;overflow=hidden;rotatable=0;points=[[0,0.5],[1,0.5]];portConstraint=eastwest;whiteSpace=wrap;html=1;" parent="8VUmXksc3MJzfbJmVagt-1" vertex="1">
          <mxGeometry y="131" width="160" height="26" as="geometry" />
        </mxCell>
        <mxCell id="8VUmXksc3MJzfbJmVagt-11" value="+ average : float + string&quot;%&quot;" style="text;strokeColor=none;fillColor=none;align=left;verticalAlign=top;spacingLeft=4;spacingRight=4;overflow=hidden;rotatable=0;points=[[0,0.5],[1,0.5]];portConstraint=eastwest;whiteSpace=wrap;html=1;" parent="8VUmXksc3MJzfbJmVagt-1" vertex="1">
          <mxGeometry y="157" width="160" height="26" as="geometry" />
        </mxCell>
        <mxCell id="8VUmXksc3MJzfbJmVagt-5" value="" style="endArrow=open;endSize=12;dashed=1;labelBackgroundColor=default;html=1;exitX=0.554;exitY=1.045;exitDx=0;exitDy=0;exitPerimeter=0;" parent="1" source="ENt3GgtHNPn2ZB3A4AnP-8" target="8VUmXksc3MJzfbJmVagt-1" edge="1">
          <mxGeometry x="-0.6" width="160" relative="1" as="geometry">
            <mxPoint x="200" y="230" as="sourcePoint" />
            <mxPoint x="199.5" y="290" as="targetPoint" />
            <mxPoint as="offset" />
          </mxGeometry>
        </mxCell>
        <mxCell id="8VUmXksc3MJzfbJmVagt-14" value="Dashboard" style="swimlane;fontStyle=0;childLayout=stackLayout;horizontal=1;startSize=27;fillColor=#d5e8d4;horizontalStack=0;resizeParent=1;resizeParentMax=0;resizeLast=0;collapsible=1;marginBottom=0;whiteSpace=wrap;html=1;strokeColor=#82b366;" parent="1" vertex="1">
          <mxGeometry x="120" y="560" width="160" height="165" as="geometry" />
        </mxCell>
        <mxCell id="8VUmXksc3MJzfbJmVagt-23" value="&lt;font face=&quot;Courier New&quot;&gt;&amp;lt;&amp;lt;class&amp;gt;&amp;gt;&lt;/font&gt;" style="text;strokeColor=none;fillColor=none;align=left;verticalAlign=top;spacingLeft=4;spacingRight=4;overflow=hidden;rotatable=0;points=[[0,0.5],[1,0.5]];portConstraint=eastwest;whiteSpace=wrap;html=1;" parent="8VUmXksc3MJzfbJmVagt-14" vertex="1">
          <mxGeometry y="27" width="160" height="26" as="geometry" />
        </mxCell>
        <mxCell id="8VUmXksc3MJzfbJmVagt-15" value="+ testScores: array of int" style="text;strokeColor=none;fillColor=none;align=left;verticalAlign=top;spacingLeft=4;spacingRight=4;overflow=hidden;rotatable=0;points=[[0,0.5],[1,0.5]];portConstraint=eastwest;whiteSpace=wrap;html=1;" parent="8VUmXksc3MJzfbJmVagt-14" vertex="1">
          <mxGeometry y="53" width="160" height="26" as="geometry" />
        </mxCell>
        <mxCell id="8VUmXksc3MJzfbJmVagt-16" value="+ assignmentScores: array of int" style="text;strokeColor=none;fillColor=none;align=left;verticalAlign=top;spacingLeft=4;spacingRight=4;overflow=hidden;rotatable=0;points=[[0,0.5],[1,0.5]];portConstraint=eastwest;whiteSpace=wrap;html=1;" parent="8VUmXksc3MJzfbJmVagt-14" vertex="1">
          <mxGeometry y="79" width="160" height="41" as="geometry" />
        </mxCell>
        <mxCell id="8VUmXksc3MJzfbJmVagt-17" value="+ connectionGraph : array of points" style="text;strokeColor=none;fillColor=none;align=left;verticalAlign=top;spacingLeft=4;spacingRight=4;overflow=hidden;rotatable=0;points=[[0,0.5],[1,0.5]];portConstraint=eastwest;whiteSpace=wrap;html=1;" parent="8VUmXksc3MJzfbJmVagt-14" vertex="1">
          <mxGeometry y="120" width="160" height="45" as="geometry" />
        </mxCell>
        <mxCell id="8VUmXksc3MJzfbJmVagt-21" value="" style="endArrow=open;endSize=12;dashed=1;labelBackgroundColor=default;html=1;" parent="1" target="8VUmXksc3MJzfbJmVagt-14" edge="1">
          <mxGeometry x="-0.6" width="160" relative="1" as="geometry">
            <mxPoint x="200" y="480" as="sourcePoint" />
            <mxPoint x="199.5" y="550" as="targetPoint" />
            <mxPoint as="offset" />
          </mxGeometry>
        </mxCell>
      </root>
    </mxGraphModel>
  </diagram>
</mxfile>
